<svg xmlns="http://www.w3.org/2000/svg" width="256" height="256" viewBox="0 0 256 256" fill="none" role="img" aria-label="First Route Completed earned StrideOS achievement badge">
  
  <polygon points="230.2,69.0 230.2,187.0 128.0,246.0 25.8,187.0 25.8,69.0 128.0,10.0" fill="#0E0E0F" fill-opacity="0.96" stroke="#B7835F" stroke-width="5" stroke-opacity="1" />
  <polygon points="224.1,72.5 224.1,183.5 128.0,239.0 31.9,183.5 31.9,72.5 128.0,17.0" fill="none" stroke="#B7835F" stroke-width="5" stroke-opacity="0.92" />
  <polygon points="211.1,80.0 211.1,176.0 128.0,224.0 44.9,176.0 44.9,80.0 128.0,32.0" fill="none" stroke="#B7835F" stroke-width="2.4" stroke-opacity="0.76" />
  <polygon points="198.1,87.5 198.1,168.5 128.0,209.0 57.9,168.5 57.9,87.5 128.0,47.0" fill="none" stroke="#B7835F" stroke-width="2.4" stroke-opacity="0.60" />
  <path d="M82 128c24-34 69 32 92-4" fill="none" stroke="#B7835F" stroke-width="8" stroke-linecap="round"/><circle cx="82" cy="128" r="8" fill="#B7835F"/><circle cx="174" cy="124" r="8" fill="#B7835F"/><text x="128" y="203" text-anchor="middle" font-family="Avenir Next, Inter, Arial, sans-serif" font-size="11" font-weight="900" letter-spacing="1.2" fill="#F3F1EB">FIRSTS</text>
</svg>
