<svg xmlns="http://www.w3.org/2000/svg" width="256" height="256" viewBox="0 0 256 256" fill="none" role="img" aria-label="Momentum run level. Unlocked.">
  <defs>
    <linearGradient id="run-level-momentum-share-transparent-edge" x1="42" y1="34" x2="214" y2="220" gradientUnits="userSpaceOnUse">
      <stop offset="0" stop-color="#D7E2A8"/>
      <stop offset="0.54" stop-color="#A8B585"/>
      <stop offset="1" stop-color="#3F4A31"/>
    </linearGradient>
    <linearGradient id="run-level-momentum-share-transparent-interior" x1="128" y1="24" x2="128" y2="231" gradientUnits="userSpaceOnUse">
      <stop offset="0" stop-color="#76875C" stop-opacity="0.00"/>
      <stop offset="0.46" stop-color="#0D0E0E" stop-opacity="0.00"/>
      <stop offset="1" stop-color="#080909" stop-opacity="0.00"/>
    </linearGradient>
    <linearGradient id="run-level-momentum-share-transparent-mountain" x1="82" y1="86" x2="176" y2="146" gradientUnits="userSpaceOnUse">
      <stop offset="0" stop-color="#D7E2A8"/>
      <stop offset="0.48" stop-color="#A8B585"/>
      <stop offset="1" stop-color="#3F4A31"/>
    </linearGradient>
  </defs>
  <polygon points="128.0,14.0 226.0,70.0 226.0,181.0 128.0,238.0 30.0,181.0 30.0,70.0" fill="transparent" fill-opacity="0" stroke="url(#run-level-momentum-share-transparent-edge)" stroke-width="4.8" stroke-linejoin="round" stroke-opacity="1"/>
  <polygon points="128.0,20.4 220.5,73.2 220.5,178.0 128.0,231.8 35.5,178.0 35.5,73.2" fill="transparent" fill-opacity="0" stroke="#D7E2A8" stroke-width="1" stroke-opacity="0.55"/>
  <path d="M44 70 L128 23 L212 70" stroke="#D7E2A8" stroke-width="1.15" stroke-opacity="0.28"/>
  <polygon points="128.0,24.9 216.6,75.6 216.6,175.9 128.0,227.4 39.4,175.9 39.4,75.6" fill="none" stroke="#D7E2A8" stroke-width="2.4" stroke-opacity="0.82"/>
  <polygon points="128.0,33.2 209.5,79.7 209.5,172.1 128.0,219.5 46.5,172.1 46.5,79.7" fill="none" stroke="#A8B585" stroke-width="1.65" stroke-opacity="0.77"/>
  <polygon points="128.0,41.4 202.5,83.9 202.5,168.3 128.0,211.6 53.5,168.3 53.5,83.9" fill="none" stroke="#76875C" stroke-width="1.65" stroke-opacity="0.72"/>
  <polygon points="128.0,49.6 195.4,88.1 195.4,164.5 128.0,203.7 60.6,164.5 60.6,88.1" fill="none" stroke="#D7E2A8" stroke-width="1.25" stroke-opacity="0.66"/>
  <polygon points="128.0,57.8 188.4,92.3 188.4,160.6 128.0,195.8 67.6,160.6 67.6,92.3" fill="none" stroke="#76875C" stroke-width="1.25" stroke-opacity="0.61"/>
  <ellipse cx="128" cy="129" rx="68" ry="31" fill="#8FA16B" opacity="0.16"/>
  <path d="M64 137 L91 121 L106 131 L123 98 L145 128 L160 118 L192 137 L171 136 L158 127 L149 137 L131 132 L118 137 L101 130 L83 137 Z" fill="#3F4A31" opacity="0.52"/>
  <path d="M70 137 L105 114 L121 126 L136 93 L143 137 Z" fill="url(#run-level-momentum-share-transparent-mountain)" opacity="1"/>
  <path d="M136 93 L154 123 L186 137 L148 137 Z" fill="#76875C" opacity="0.92"/>
  <path d="M136 93 L124 125 L117 137 L106 127 Z" fill="#D7E2A8" opacity="0.82"/>
  <path d="M105 114 L95 133 L81 137 L114 126 Z" fill="#3F4A31" opacity="0.78"/>
  <path d="M154 123 L166 137 L144 132 Z" fill="#D7E2A8" opacity="0.48"/>
  <path d="M66 140 C82 136 94 128 106 117 M118 137 L136 93 L157 124 M146 133 L160 118 L190 140" fill="none" stroke="#D7E2A8" stroke-width="2.05" stroke-linecap="round" stroke-linejoin="round" stroke-opacity="0.70"/>
  <text x="128" y="174" text-anchor="middle" font-family="Avenir Next, Inter, Arial, sans-serif" font-size="21" font-weight="700" letter-spacing="1.15" stroke="#050505" stroke-width="3" stroke-opacity="0.7" fill="none">MOMENTUM</text>
  <text x="128" y="174" text-anchor="middle" font-family="Avenir Next, Inter, Arial, sans-serif" font-size="21" font-weight="700" letter-spacing="1.15" fill="#D7E2A8" fill-opacity="1">MOMENTUM</text>
  <text x="128" y="195" text-anchor="middle" font-family="Avenir Next, Inter, Arial, sans-serif" font-size="10" font-weight="800" letter-spacing="3.2" fill="#F3F1EB" fill-opacity="0.88">STRIDEOS</text>
  <path d="M103 210 L128 224 L153 210" fill="none" stroke="#A8B585" stroke-width="3.3" stroke-linecap="round" stroke-linejoin="round" stroke-opacity="0.9"/>
  <path d="M107 221 L128 233 L149 221" fill="none" stroke="#D7E2A8" stroke-width="3.3" stroke-linecap="round" stroke-linejoin="round" stroke-opacity="0.9"/>
</svg>
