<svg xmlns="http://www.w3.org/2000/svg" width="100" height="100" viewBox="0 0 100 100" fill="none" role="img" aria-label="100 kilometer weekly distance achievement. Locked. 0 kilometers remaining this week.">
  <defs>
    <linearGradient id="weekly-distance-100k-locked-edge" x1="16" y1="10" x2="84" y2="90" gradientUnits="userSpaceOnUse">
      <stop offset="0" stop-color="#C8C8C4"/>
      <stop offset="0.55" stop-color="#8C8C8A"/>
      <stop offset="1" stop-color="#4E504E"/>
    </linearGradient>
    <radialGradient id="weekly-distance-100k-locked-glow" cx="0" cy="0" r="1" gradientUnits="userSpaceOnUse" gradientTransform="translate(50 39) rotate(90) scale(34 38)">
      <stop offset="0" stop-color="#777A78" stop-opacity="0.14"/>
      <stop offset="0.62" stop-color="#777A78" stop-opacity="0.12"/>
      <stop offset="1" stop-color="#777A78" stop-opacity="0"/>
    </radialGradient>
  </defs>
  <path d="M50 7.5 Q52.3 7.5 54.4 8.7 L82.9 25.1 Q85.2 26.4 85.2 29.1 L85.2 70.9 Q85.2 73.6 82.9 74.9 L54.4 91.3 Q52.3 92.5 50 92.5 Q47.7 92.5 45.6 91.3 L17.1 74.9 Q14.8 73.6 14.8 70.9 L14.8 29.1 Q14.8 26.4 17.1 25.1 L45.6 8.7 Q47.7 7.5 50 7.5 Z" fill="#050607" fill-opacity="1" stroke="url(#weekly-distance-100k-locked-edge)" stroke-width="2.35" stroke-linejoin="round" stroke-opacity="0.48"/>
  <ellipse cx="50" cy="41" rx="30" ry="26" fill="url(#weekly-distance-100k-locked-glow)" opacity="0.08"/>

  <text x="48.9" y="39.5" text-anchor="middle" dominant-baseline="middle" font-family="Didot, 'Bodoni 72', Georgia, serif" font-size="23" font-weight="400" fill="#8C8C8A" fill-opacity="0.54">100K</text>

  <text x="50" y="56.5" text-anchor="middle" font-family="'Avenir Next', Inter, Arial, sans-serif" font-size="7" font-weight="800" letter-spacing="1.3" fill="#8C8C8A" fill-opacity="0.42">PER WEEK</text>

  <text x="50" y="67" text-anchor="middle" font-family="'Avenir Next', Inter, Arial, sans-serif" font-size="4.4" font-weight="800" letter-spacing="1.7" fill="#8C8C8A" fill-opacity="0.32">STRIDEOS</text>
  <path d="M42.6 75.5 L50 80.3 L57.4 75.5" fill="none" stroke="#8C8C8A" stroke-width="1.22" stroke-linecap="round" stroke-linejoin="round" stroke-opacity="0.3"/>
  <path d="M43.1 81 L50 85.4 L56.9 81" fill="none" stroke="#C8C8C4" stroke-width="1.22" stroke-linecap="round" stroke-linejoin="round" stroke-opacity="0.3"/>
</svg>
